<svg width="62" height="63" viewBox="0 0 62 63" fill="none" xmlns="http://www.w3.org/2000/svg">
<path fill-rule="evenodd" clip-rule="evenodd" d="M31.0012 56.7003C44.6982 56.7003 55.8012 45.4183 55.8012 31.5003C55.8012 17.5823 44.6982 6.30029 31.0012 6.30029C17.3042 6.30029 6.20117 17.5823 6.20117 31.5003C6.20117 45.4183 17.3042 56.7003 31.0012 56.7003ZM31.0012 54.7313C18.3742 54.7313 8.13817 44.3313 8.13817 31.5003C8.13817 18.6703 18.3742 8.26929 31.0012 8.26929C43.6282 8.26929 53.8632 18.6693 53.8632 31.5003C53.8632 44.3303 43.6282 54.7313 31.0012 54.7313Z" fill="#606060"/>
<path fill-rule="evenodd" clip-rule="evenodd" d="M7.25039 51.9751C7.52639 51.9751 7.75039 52.1991 7.75039 52.4751V53.5501H8.80039C9.07639 53.5501 9.30039 53.7741 9.30039 54.0501V54.6251C9.30039 54.9011 9.07639 55.1251 8.80039 55.1251H7.75039V56.2001C7.75039 56.4761 7.52639 56.7001 7.25039 56.7001H6.70039C6.42439 56.7001 6.20039 56.4761 6.20039 56.2001V55.1251H5.15039C4.87439 55.1251 4.65039 54.9011 4.65039 54.6251V54.0501C4.65039 53.7741 4.87439 53.5501 5.15039 53.5501H6.20039V52.4751C6.20039 52.1991 6.42439 51.9751 6.70039 51.9751H7.25039ZM11.8734 30.7751C12.4064 30.8251 12.7994 31.3051 12.7514 31.8461C12.6414 33.0921 12.6414 34.3521 12.7514 35.6181C12.7994 36.1601 12.4054 36.6371 11.8724 36.6831C11.3394 36.7301 10.8694 36.3291 10.8224 35.7871C10.7004 34.4041 10.7024 33.0271 10.8224 31.6651C10.8694 31.1231 11.3414 30.7251 11.8734 30.7751ZM25.5654 13.2001C25.7804 13.6991 25.5574 14.2791 25.0674 14.4961C19.7524 16.8501 15.6394 21.4021 13.7694 26.9731C13.5964 27.4871 13.0464 27.7611 12.5394 27.5841C12.0334 27.4071 11.7624 26.8471 11.9344 26.3341C13.9804 20.2401 18.4744 15.2651 24.2904 12.6901C24.7804 12.4731 25.3504 12.7001 25.5654 13.2001ZM53.7504 4.7251C54.0264 4.7251 54.2504 4.9491 54.2504 5.2251V7.8751H56.8504C57.1264 7.8751 57.3504 8.0991 57.3504 8.3751V8.9501C57.3504 9.2261 57.1264 9.4501 56.8504 9.4501H54.2504V12.1001C54.2504 12.3761 54.0264 12.6001 53.7504 12.6001H53.2004C52.9244 12.6001 52.7004 12.3761 52.7004 12.1001V9.4501H50.1004C49.8244 9.4501 49.6004 9.2261 49.6004 8.9501V8.3751C49.6004 8.0991 49.8244 7.8751 50.1004 7.8751H52.7004V5.2251C52.7004 4.9491 52.9244 4.7251 53.2004 4.7251H53.7504Z" fill="#D0021B"/>
<path fill-rule="evenodd" clip-rule="evenodd" d="M32.5874 32L39.651 39.0636C40.7093 40.1219 39.1219 41.7093 38.0636 40.651L31 33.5874L23.9364 40.651C22.8781 41.7093 21.2907 40.1219 22.349 39.0636L29.4126 32L22.349 24.9364C21.2907 23.8781 22.8781 22.2907 23.9364 23.349L31 30.4126L38.0636 23.349C39.1219 22.2907 40.7093 23.8781 39.651 24.9364L32.5874 32Z" fill="#D0021B"/>
</svg>
