<svg width="54" height="53" viewBox="0 0 54 53" fill="none" xmlns="http://www.w3.org/2000/svg">
<path fill-rule="evenodd" clip-rule="evenodd" d="M27.0012 52.7C40.6982 52.7 51.8012 41.418 51.8012 27.5C51.8012 13.582 40.6982 2.30005 27.0012 2.30005C13.3042 2.30005 2.20117 13.582 2.20117 27.5C2.20117 41.418 13.3042 52.7 27.0012 52.7ZM27.0012 50.731C14.3742 50.731 4.13817 40.331 4.13817 27.5C4.13817 14.67 14.3742 4.26905 27.0012 4.26905C39.6282 4.26905 49.8632 14.669 49.8632 27.5C49.8632 40.33 39.6282 50.731 27.0012 50.731Z" fill="#606060"/>
<path fill-rule="evenodd" clip-rule="evenodd" d="M3.25039 47.9751C3.52639 47.9751 3.75039 48.1991 3.75039 48.4751V49.5501H4.80039C5.07639 49.5501 5.30039 49.7741 5.30039 50.0501V50.6251C5.30039 50.9011 5.07639 51.1251 4.80039 51.1251H3.75039V52.2001C3.75039 52.4761 3.52639 52.7001 3.25039 52.7001H2.70039C2.42439 52.7001 2.20039 52.4761 2.20039 52.2001V51.1251H1.15039C0.874391 51.1251 0.650391 50.9011 0.650391 50.6251V50.0501C0.650391 49.7741 0.874391 49.5501 1.15039 49.5501H2.20039V48.4751C2.20039 48.1991 2.42439 47.9751 2.70039 47.9751H3.25039ZM38.6704 20.1491C39.4024 20.8701 39.4294 22.0661 38.7284 22.8211L24.3704 36.8071C23.6504 37.5831 22.4464 37.5861 21.7224 36.8131L16.6644 32.1191C15.9614 31.3681 15.9824 30.1721 16.7114 29.4471C17.4414 28.7221 18.6034 28.7441 19.3074 29.4961L23.0374 32.7721L36.0744 20.2091C36.7744 19.4541 37.9374 19.4281 38.6704 20.1491ZM7.87339 26.7751C8.40639 26.8251 8.79939 27.3051 8.75139 27.8461C8.64139 29.0921 8.64139 30.3521 8.75139 31.6181C8.79939 32.1601 8.40539 32.6371 7.87239 32.6831C7.33939 32.7301 6.86939 32.3291 6.82239 31.7871C6.70039 30.4041 6.70239 29.0271 6.82239 27.6651C6.86939 27.1231 7.34039 26.7251 7.87239 26.7751H7.87339ZM21.5654 9.2001C21.7804 9.6991 21.5574 10.2791 21.0674 10.4961C15.7524 12.8501 11.6394 17.4021 9.76939 22.9731C9.59639 23.4871 9.04639 23.7611 8.53939 23.5841C8.03339 23.4071 7.76239 22.8471 7.93439 22.3341C9.98039 16.2401 14.4744 11.2651 20.2904 8.6901C20.7804 8.4731 21.3514 8.7001 21.5664 9.2001H21.5654ZM49.7504 0.725098C50.0264 0.725098 50.2504 0.949098 50.2504 1.2251V3.8751H52.8504C53.1264 3.8751 53.3504 4.0991 53.3504 4.3751V4.9501C53.3504 5.2261 53.1264 5.4501 52.8504 5.4501H50.2504V8.1001C50.2504 8.3761 50.0264 8.6001 49.7504 8.6001H49.2004C48.9244 8.6001 48.7004 8.3761 48.7004 8.1001V5.4501H46.1004C45.8244 5.4501 45.6004 5.2261 45.6004 4.9501V4.3751C45.6004 4.0991 45.8244 3.8751 46.1004 3.8751H48.7004V1.2251C48.7004 0.949098 48.9244 0.725098 49.2004 0.725098H49.7504Z" fill="#03AEB4"/>
</svg>
